  <svg xmlns="http://www.w3.org/2000/svg" width="770.217" height="332" viewBox="0 0 770.217 332">
    <g id="square_60" data-name="square 60" transform="translate(351.503)" fill="#fff" stroke="#211715" stroke-width="1">
      <rect width="146" height="332" rx="4" stroke="none"/>
      <rect x="0.5" y="0.5" width="145" height="331" rx="4" fill="none"/>
    </g>
    <path id="jinja" d="M79.06.668,78.793.8s-15.21,7.245-27.48,8.835c-6.18.8-15.18,1.6-23.213,2.066q-5.418.33-10.847.39a34.594,34.594,0,0,1-6.5-.367,67.31,67.31,0,0,1-8-2.44l-.84-.333,1.153,3.906L0,15.559l.827,1.453,1.467.11,3.507.437.54,1.713,2.117.19,1.06,3.593.307.02s4.46.383,5.873.383c1.217,0,3.1-.133,3.573-.167l.08,1.32.957.18v1.05L17.64,28.206l.523.093c-.467.033-.757.06-1.667.1a27.781,27.781,0,0,1-4.01-.06,23.446,23.446,0,0,0-2.367-.287H9.933l-.407.433-.153,1.486H9.88l.183,3.7L19.84,33.3,19.157,45.57l-.067,1.156L11.617,46.3l-.067-2.536h1.793l.19-1.4,1.547-.353.743-1.04-7.037-1.7L3.1,40.961l1.55,1.293h.553l.083,1.113,1.647.093V46L4.9,46.527l.633,1.346.35.227v2.75H7.027V61.834L5.14,62.12l.327,4.156,1.113.187L6.4,74.268l6.01.11L11.34,66.7l6.607-.16-.467,3.623-.833,3.439,8.7.11.09-7.6,4.407-.4-.24,4.313-.21,3.3h5.443l-.177-7.665.587.09.223-4.639h-.81l-.193-1.133-.437-4.3.163-4.546h.983V47.2l-1.213.09.133-2.686,1.433-.143.077-1.173.573-.083,1.7-1.3-6.09-1.25-5.7,1.263.953,1.563.8-.067.18-.013.113,1.473,1.367-.067.013,2.246-5.087-.117.177-2.923.2-3.086V36.885l.16-3.839,11.617-.593,13.85-.8.11,2.246-.507,6.5-.21,5.642-4.4-.077-.02-3.393,1.913-.07.093-1.243.9-.137-.04-.19.507-.033.967-1.293-6.7-1.57-6.62,1.42.86,1.5.467-.033v.3h.82v1.34l1.747.027-.02,2.853H38.533l-.047,1.683.623.073-.07,3.259,1.31.067L40.2,62.564l-1.743.36.053,1.41H39.1v3.283h.963l-.233,4.016-.373,4.379,7.233.19L46.457,72.3,46,69.469l-.073-1.976,4.417-.08-.133,3.339-.03,4.433,3.443.273,4.173-.167,1.777-.523-.833-2.533L58.56,68.9l-.267-1.943,4.11-.15-.19,2.473-.02,5.049,2.46.23,2.1-.053,1.387-.433-.623-4.746-.163-2.873.833-.09.02-2.983.267-.057-.09-1.433h-1.01l-.163-1.756-.077-8.972.74-.02V48.14l.32.047V46.65l-1.113-.09.02-2.786L69,43.6l-.11-1.206.867-.07-.08-.39,1.933-.966L64.76,39.594l-6.267,1.266.77,1.44.743-.067.047.257h.677l.037,1.42,1.823-.02.117,2.576-5.567-.04-.707-4.856-.593-2.753-.483-4.9.25-2.486,12.823-.976.04-4.386.67-.167-.077-1.266-.8-.46h-.123l-1.19.167-2.643.387q-2.7.4-5.417.72l-.633.067-.05-.593-2.617-1.366.02-.917.9-.027.067-2.24c.3-.02,1.173-.08,2.57-.207a40.706,40.706,0,0,0,4.537-.6c1.99-.467,4.84-.933,4.84-.933l.253-.043,1.36-3.693,2.683-.78.22-.613,5.933-1.64L80,11.03,77.61,5.817l.157-.787,1.147-.6.99-3.019-.84-.743Zm-29.643,20.2-.033,1.753,1.357.057-.053,1.066-2.63,1.726-.287.86-6.2.3.033-.613.373-.6.033-.513,0-.76.223-.52.1-.533v-.307l.267-1.076ZM32.15,22.407l-.143.88.663.78-.047,1.29.587.9-.157,1.093.083.117-6.157.247.067-.507-2.177-1.18-.073-1.15.967-.047.1-1.993ZM45.53,50.736l4.193.273-.167,6.459.61,5.132L45.7,62.447l-.167-11.711Zm-34.083.28,7.2.373L18,55.665v4.063l.457,1.743L11.49,61.8Zm51.253.033V61.9l-4.3.313-.173-5.742L57.7,51.166ZM24.387,51.3l5.127.02.057,9.985-4.767.087L24.55,58.3l-.02-3.489Z" transform="translate(384.613 204.498)" fill="#b41717"/>
    <path id="flask" d="M28.688,77.558c-3.656-2.88-7.56-5.64-10.224-9.52A77.253,77.253,0,0,1,5.583,44.928C3.8,39.508,3.183,33.7.887,28.488c-2.408-3.776.412-7.912,4.552-9.12,1.84-.348,5.088-2.088,1.172-.844C3.1,21.1,2.759,16.183,6.359,15.875c2.46-.328,3.36-2.34,2.52-4.148-2.64-1.72,6.4-3.612,1.852-6.176C6,.435,17.36-.546,14.559,5.255c-.668,4.46,7.936-.82,5.94,4.332,2.028,2.476,7.6.56,7.46,4.036,2.96.2,3.972,2.688,6.748,2.88,2.88,1.3,8.088,2.32,9.064,5.56C40.92,24.328,34.316,17.4,34,23.655c.86,9.24.64,18.757,4.016,27.553,1.6,5.328,5.48,9.52,8.976,13.673,3.348,4.064,7.884,6.92,12.508,9.332A51.566,51.566,0,0,0,72.352,78.19c1.792-1.372,4.96-6.468,7.752-4.32.132,2.416-5.552,5.052-.268,4.784,3.1-.936,5.256,2.4,7.812-.608,2.352,2.788,9.784-1.784,8.108,3.92-2.264,1.456-5.568.576-7.836,2.584-3.74-1.868-6.72,1.672-10.86,1.224a79.438,79.438,0,0,1-13.936,1.16c-7.648-.6-15.46-.856-22.736-3.52a46.106,46.106,0,0,1-11.7-5.856Zm6.46,2.8c4,1.728,7.912,3.552,12.3,4.1,6.96.96,14.148,2.456,21.132,1.1-3.16-1.428-6.432.56-9.58-1.02-3.776.812-7.828-.208-11.668-.708-4.368-1.944-9.08-3.28-13.164-5.808-5.108-1.864,2.64,2.392,4.02,2.74,3.192,1.812-3.508-.932-4.456-1.684-2.672-1.5-3.016-1.188-.264.336.556.32,1.1.664,1.68.94Zm-7.616-5.384c3.88,1.436-.016-2.728-1.8-2.488-.784-1.364-3-2.228-1.44-2.96-2.816.976-2.948-3.72-4.28-3.052-2.976-.94-1.16-4.28-4.7-6.32-.324-2.16-3.528-4.032-4.552-7.288-.452-1.664-3.62-6.452-1.672-2,1.656,4.288,4.572,7.96,7,11.628,1.88,3.492,4.108,7.144,7.54,9.32C24.784,72.926,25.9,74.626,27.532,74.974ZM16.36,62.705C16.492,62.121,17.068,63.973,16.36,62.705ZM32.176,76.694C33.036,76.31,30.936,76.214,32.176,76.694Zm2.1.768C34.064,76.4,33.32,78.054,34.28,77.462Zm2.64,1.1C38.168,77.362,34.984,77.81,36.92,78.562Zm4.508,2.52C42.192,79.954,38.988,80.654,41.428,81.082ZM32.76,75.03C34.708,73.77,30.24,75.014,32.76,75.03Zm1.976.984C34.68,75.35,34.032,76.314,34.736,76.014Zm9.88,6.168c1.588,1,9.28,2.2,4.46.412-.8.168-8.92-2.3-4.464-.412ZM28.932,69.965C28.772,69.3,26.468,69.225,28.932,69.965Zm4.6,2.68C34.732,71.806,31.048,72.006,33.532,72.646ZM37.4,75.018C39.116,74.37,34.612,74.366,37.4,75.018ZM27.06,67.925c1.864,1.432,7.52.184,2.856-.852-2.12-1.132-6.908-1.9-3.648.68Zm12.96,7.912C40.792,74.518,36.76,75.078,40.02,75.838Zm-3.936-3.132c4.56,1.292-3.832-2.88-1.124-.472l.6.272.52.2Zm7.892,4.56C48.3,77.306,40.076,76.678,43.976,77.266ZM25.4,65.425C25.232,64.625,24.336,65.5,25.4,65.425ZM51.28,81.366C51.392,79.914,49.868,82.446,51.28,81.366ZM32.76,69.941C32.5,69.177,31.416,69.909,32.76,69.941Zm-6.952-5.016C28.288,64.777,22.416,63.833,25.808,64.925ZM17.568,59.6C17.26,58.409,14.871,57.461,17.568,59.6ZM39.2,73.338C38.74,72.818,38.98,73.45,39.2,73.338ZM52.66,81.6C52.62,80.81,51.928,81.9,52.66,81.6ZM38,72.106C38.244,71.086,35.892,71.8,38,72.106ZM27.98,65.737C29.82,65.537,25.02,64.493,27.98,65.737ZM44.944,76.286C47.816,75.146,42.144,75.726,44.944,76.286ZM36.12,70.3c3.308.424-3.94-2.252-.724-.24Zm11.5,7.072c3.092-1.848,2.072,4.328,5.244.52,3.128-2.28-2.7,2.828,1.16.412,2.784-1.868,6.9.88,9.5,1.78,1.872-.092,3.692,1.62,5.612.58,3.692-1-7.224-1.48-4.36-3.24-3.38.98-5.88-1.176-7.54-3.34-3.792-.88-8.176-2.812-10.068-6.168-.768-1.26,1.12.176-.664-1.88-2.28-2.032-3.424-4.34-4.96-6.808-1.828-.976-2.04-3.852-2.228-.1.016-2.372-2.212-3.968-2.752-3.3-.008-2.284,2.38-1.14.7-2.828-.36-2.368-1.544-4.84-1.9-7.508-.552-1.288-.08-4.044-1.892-1.128-.66,3.08-.22-3.788.808-1.52,1.348-2.32-.48-2.04-.56-1.72.88-1.952.56-4.72-.228-3.664.468-2.068.74-7.608-.7-6.624.872-2.16,1.656-9.892-2.136-6.944a16.107,16.107,0,0,0-5.452,1.184c3.944,2.172-.4.784-2,.44-.208,2.008-1.8,1.14-3.784,1.16,3.172.392-1.544,3.24-3.364,2.136-2.36,1.128,2.04,3.948.048,4.82.24,1.312-3.62-.48-3.32,2.56-2.292-.964-.312,3.6.836,2.056,3.9,1.056,2.744,3.464,2.84,5.748-.632,1.332-3.136-3.132-.56-2.924-2.028-3.308-2.244-1.2-3.936.34-.4.112,4.316,2.188,1.36,3.212,2.6.4,2.672,2.68,3.2,4.12,1.56,1.628,1.24-1.8,3.116.16-1.184-1.744-6.268-4.912-2.176-3.9-.02-1.76-.74-3.172.516-3.136,1.24-2.248-1.3,5.548,1.5,2.688.772-.34.96-2.252,2.36.18,2.02,1.992.728,3.432-2.124,1.612.508,1.732,3.816,2.348,3.2,5.06.66,2.38,1.58,1.5,2.384,1.368.632,2.312.988.612,1.02-.492,2.88.62,2.208,2.32,3.112,3.52,1.988.9-2.848-6.088.568-2.1,3.592,3.24,1.348,4.6-1.88,4.08,2.04-.164,2.7,2.76,5.252,2.656,2.328,1.108,3.9,5.36-.108,3.588-1.392-1.252-6.32-2.8-2.292-.416,3.716,1.72,6.66,2.752,10.244,4.908,2.56,1.832,3.672,3.928,4.64,4.344-2.152,1.028-6.492-.824-3.268-1.392-2.012-.364-4.272-1.38-2.348,1.12,1.64,1.372,5.8,1.224,6.548,1.38-.636,1.392-1.72,1.5.024,1.612-1.944,1.04.624,1.2.8,1.792ZM43.648,66.137c-1.184-1.24-1.492-3.56-.212-1.54C44.092,64.861,45.536,68.385,43.648,66.137ZM56.6,74.366C57.34,74.322,56.624,74.926,56.6,74.366ZM41.776,63.1C41.736,61.229,42.2,64.541,41.776,63.1Zm-1.288-1.732C39,58.489,42.368,62.185,40.488,61.369ZM24.888,50.6C25.764,50.361,25.32,52.1,24.888,50.6ZM37.3,57.329C37.84,55.313,37.936,59.025,37.3,57.329Zm-8.768-6.1C27.916,50.117,29.828,52.269,28.536,51.229Zm7.528,2.416c-1.408-3.16,1-1.728.312.52ZM23.08,44.984c-.632-1.04-1.672-4.08-1.336-5.008.3,1.512,3.216,6.508,1.428,2.072-1.976-3.72,2.36,1.208,2.808,2.136.2.92-1.22-.252-.256,1.912-1.76-2.468-1.04,1.36-2.644-1.112ZM19.068,42.22C19.228,39.808,19.988,43.872,19.068,42.22Zm1.8.62C21.732,41.02,22.332,45.376,20.868,42.84Zm-4.336-3.36c-1.5-1.48-2.576-2.852.068-.92,1.02.04-2.264-3.112.24-1C19.48,38.04,18.148,41.888,16.532,39.48Zm2.28-.06C19.68,38.56,19.272,40.268,18.812,39.42Zm1.4.452C18.9,37.4,21.812,40.9,20.212,39.872ZM17.424,37.2c-4.344-3.864,5.46,2.024.708.72Zm12.44,7.232c-1.88-1.128-.492-7.936.148-3.28,1.828-.592-.1,2.4,1.26,2.376-.212,1.892-.824,2.572-1.4.9Zm4.6,2.72C34.656,45.1,34.86,48.557,34.464,47.156Zm-.8-.792C33.88,45.484,33.692,47.4,33.664,46.364ZM18.28,35.936c-2.788-3.852,8.108,3.892,1.788.976C19.408,36.74,18.612,36.672,18.28,35.936Zm8.864,4.7C26.88,37.4,27.732,41.172,27.144,40.636Zm6.728,4.316C34.392,43.1,33.912,46.172,33.872,44.952ZM18.7,34.464c1.66-.352,6.872,2.916,2.08.936C20.256,34.808,19.12,35.08,18.7,34.464Zm14.24,7.1c.176-3.32.992-1.98.008.472Zm-13-8.252c.676-.992-1.8-4.48.356-1.252.928.74,2.688,1.24,1.132,1.548C23.868,35.764,20.828,34.192,19.94,33.312Zm12.3,7.216C32.708,36.752,32.652,42.74,32.24,40.528Zm-13.712-10.7C19.044,29.6,18.8,30.512,18.528,29.824Zm3.208,1.912C22.56,30,23.256,33.668,21.736,31.736Zm9.052,5.036C30.78,36.1,30.96,37.74,30.788,36.772Zm-.524-1.16C29.008,32.508,31.432,37.252,30.264,35.612Zm-.772-2.04C29.28,32.292,30.212,35.188,29.492,33.572Zm1.256-2.04c-.864-1.52,1.088-6.692,1.3-3.48-.908,2.5-.26,3.9.372.544,1.172-2.64-.252,5.212-1.68,2.94Zm1.288-7.692C32.412,23.379,32.116,24.4,32.036,23.839ZM29.88,66.293C29.368,65.849,29.944,66.573,29.88,66.293Zm4.44,2.24c2.46.64,2.448-.38.22-.68-1.2-1.12-4.984-2.3-1.6-.14.228.568.94.556,1.376.824Zm-8.764-5.816c1.36,1.012,5.12,2.876,1.936.384,1.076-1.248-2.056-1.912-1.016-2.744-2.64-1.616-2.08-1.472-.232-1.424-3.176-1.416.456-1.312.28-2.04-1.22-.24-6.08-2.16-3.216.16-2.9-1.48-.692.552-1.568.336-2.972-.808,2.64,2.26-.472,1.5,1.7,1.348,4.584,3.456.72,1.428C21.476,61.049,24.748,62.157,25.556,62.717Zm4.64,2.668C35.836,67.2,27.432,63.161,30.2,65.385Zm23.76,14.393C54.036,78.658,53.184,80.738,53.956,79.778ZM56.4,80.806c1.3-1.26.052,2.012,2.16-.308.02-1.66-.068-2.64-2.424-.624C55.488,80.234,55.2,81.766,56.4,80.806ZM17.632,56.457C17.232,54.885,14.831,54.9,17.632,56.457Zm2.608,1.712C19.272,56.561,16.784,56.713,20.24,58.169Zm14.84,8.948c1.448,1.28,6.648.944,1.76.16C36.112,66.2,32.236,66.461,35.08,67.117Zm20.388,12.6C57.7,77.842,53.308,80.546,55.468,79.714Zm4.64,3.184C60.12,82.3,59.148,83.162,60.108,82.9Zm0-.84C62.58,79.442,57.72,82.214,60.112,82.058ZM11.219,51.089c-2.1-3-1.308-4.352-3.34-6.8-.384-1.88-3.48-6.132-1.6-1.624C8,45.3,8.511,49.381,11.219,51.089ZM59.34,81.226C63.88,78.29,57.476,79.946,59.34,81.226Zm3.464,1.36C65.084,80.634,61.364,82.178,62.8,82.586ZM16.86,53.137C17.512,52.169,15.179,53.013,16.86,53.137ZM62.08,81.654c2.2-1.42-.5-1.2-.4.128ZM32.2,62.813C32.12,61.853,31.036,62.893,32.2,62.813Zm1.84,1.068C33.46,62.693,33.144,64.069,34.04,63.881ZM65.616,82.618c2.82-2.04-1.712-.392-.592.384Zm-1.08-.52C66.832,80.17,62.108,82.95,64.536,82.1Zm5.52,3.672C71.6,84.738,68.18,85.438,70.056,85.77ZM18.28,52.437c2.068.464,8.264,5.1,4.608.32-1.872-.552-.748-5.132-2.66-4.32,1.28,2.14,1.056,3.052-1.64,1.7-3.38-1.652-1.9.816-1.24,1.5C16.452,51.845,18.544,52.421,18.28,52.437ZM8.855,45c.368-1.532-3.412-8.428-1.784-3.456C7.655,42.58,7.591,44.556,8.855,45Zm17.3,10.664C25.088,54.769,26.1,55.533,26.152,55.661Zm2.624.608C28.776,54.649,25.876,55.613,28.776,56.269ZM51.5,70.6C51.068,69.489,49.788,70.577,51.5,70.6Zm1.092.8C52.432,70.777,51.964,71.517,52.592,71.4Zm9.008,5.68C62.464,76.438,60.52,77,61.6,77.078ZM13.559,46.2C16.04,45.236,10.9,45.516,13.559,46.2ZM49.5,68.845C49.468,67.241,47.916,69.245,49.5,68.845ZM12.575,43.92C14.171,43.38,11.107,43.56,12.575,43.92ZM17.2,46.16C17.172,45.628,16.712,46.36,17.2,46.16ZM73.56,80.722c2.048-.416,6.712,1.04,7.464-.544-2.48-.06-8.6-1.752-8.888.4l.544.092.88.052ZM18.668,46.528C18.7,44.9,17.4,46.468,18.668,46.528ZM6.519,38.1C5.967,35,4.419,37.624,6.519,38.1Zm2.9.728C9.451,37.824,6.763,37.928,9.415,38.824Zm1.656.812C10.591,39.248,10.7,40.124,11.071,39.636Zm10.42,6.68C21.98,45.868,20.332,45.984,21.492,46.316ZM9.971,37.8C9.691,35.464,6.611,37.452,9.971,37.8ZM4.027,33.948C3.947,32.868,3.451,34.356,4.027,33.948Zm.88-.668C4.767,32,4.147,33.44,4.907,33.28ZM9.787,36.2c2.072-.812-3.76-1.68-.416-.16ZM75.124,76.554C76.444,75.342,73.444,76.178,75.124,76.554Zm7.9,4.092C83.548,79.078,81.684,80.846,83.02,80.646ZM10.291,33.636C10.511,32.116,8.651,33.936,10.291,33.636ZM3.347,28.988c-.372-2.14-.32-5.9,3.248-4.624-4.764.944,3.3,5.92,2.28,1.992,2,.1,3.92-1.184,2.864.76,3.948-.44,6.68-3.856,10.5-3.38a41.478,41.478,0,0,0,9.416-1.884c2.632-.192,5.16-3.024,3.72-4.7a40.766,40.766,0,0,0-11.308.932c-4.392.912-8.384,2.648-12.82,3.4-4.32.58.868,1.6-.368,1.824-2.256.784,2.688,1.312-.292,2.136-1.84-.352-3.76-.984-2.972-2.92-4.14.532-7.78,2.252-4.508,6.464h.24Zm9.976-5.08c.972-3.576,5.2,2.94,1.592.472a2.311,2.311,0,0,0-1.592-.48Zm.188-1.736C14.911,21.131,14.255,22.755,13.511,22.171Zm1.78.032c.128-1.644,4.072.872.652.592Zm2.432-.98C18.612,20.183,17.98,22.143,17.724,21.223Zm.624-.416c1.48-1.776,8.38-1.132,3.328-.172C20.324,19.615,19.284,21.235,18.348,20.807Zm9-1.388C27.128,14.563,31.824,21.147,27.348,19.419Zm2.56-.016c.932-2.448,3.624-.98.432-.492C30.408,19.171,30.244,20.175,29.908,19.4ZM9.287,32.384C12.075,30.676,6.323,30.9,9.287,32.384Zm2.06.576C12.327,31.92,9.223,32.536,11.347,32.96Zm-6.08-4.32C6.863,27.42,3.383,28.176,5.267,28.64ZM87.676,80.2C87.724,78.782,86.46,80.842,87.676,80.2ZM79.3,74.482C79.544,72.85,78.224,74.63,79.3,74.482Zm10.68,6.272c2.228,0,6.752-.692,1.9-.692-.76.12-4.436.1-1.9.692Zm-76.825-48.8c1.8-.12,2.824-1.988-.348-1.88-4.92-.508,4.336,1.68-.632,1.056-.668.44.944.948.98.828Zm1.592.808C14.559,31.6,14.191,33.376,14.751,32.76Zm1.88-5.028C17.42,26.76,15.551,27.472,16.632,27.732Zm-6-10.032c3.224-1.1,7.628-2.324,9.148.54-1.548-1.864-.624-3.7.84-.972,2.064,2.756,3.1-1.252,1.752-2.18,1.532,1.9,3.276,2.8,1.028.12,2.44-2.936-4.892.388-6.56.352-.8.36-8.284,1.908-6.2,2.14Zm1.888-3.612c1.84-1.388,6.352.824,3.456-1.38C15.7,12.459,9.631,14.379,12.519,14.087Zm6.7.276c2.152.052-.924-2.888,1.636-1.56-.42-1.372-2.984-1.628-4.24-2.176-.7,1.256,1.44,3.752,2.6,3.736ZM13.7,8.283C14.439,7.275,12.391,8.795,13.7,8.283Zm2.736.656c3.464-.46-.88-1.492-.7-.04Zm-5.108-4c-2.44-3.184,4.584.536,2.108-2.8C11.343.479,9.339,4.011,11.323,4.939ZM42.62,21.8c1.12-1.984-4.62-2.672-.752-.7C42.228,21.219,42.148,21.939,42.62,21.8Z" transform="translate(384.612 38.885)"/>
    <text id="_1._リクエスト送信" data-name="1. リクエスト送信" transform="translate(152.552 77.528)" fill="#211715" font-size="20" font-family="YuGothicUI-Regular, Yu Gothic UI" letter-spacing="0.05em"><tspan x="0" y="0">1. リクエスト送信</tspan></text>
    <line id="sign_16" data-name="sign 16" y1="0.305" x2="167.5" transform="translate(153.552 100.029)" fill="#211715" stroke="#211715" stroke-linecap="round" stroke-width="2"/>
    <path id="parts_47" data-name="parts 47" d="M9.788,7.57,5.353,4.14,4.69,3.627,0,0" transform="translate(311.263 92.459)" fill="#211715" stroke="#211715" stroke-linecap="round" stroke-width="2"/>
    <g id="_10885_line" data-name="10885_line" transform="translate(-155.452 -60.295)">
      <path id="parts_23" data-name="parts 23" d="M196.335,226.183c.967-.319,1.964-.589,2.91-.967a5.122,5.122,0,0,0,3.13-3.064,12.678,12.678,0,0,0,.475-2.387c.183-1.18.329-2.371.434-3.56a2.008,2.008,0,0,0-2-2,2.052,2.052,0,0,0-2,2q-.067.771-.164,1.54c-.027.227-.056.455-.086.682-.051.4.076-.529.01-.071l-.045.307a16.138,16.138,0,0,1-.4,2.186,1.753,1.753,0,0,0-.1.279c-.033-.043.257-.538.062-.172-.04.075-.088.146-.131.219-.158.269.374-.412.035-.06-.065.067-.151.123-.208.194.31-.382.255-.187.073-.072-.13.083-.266.149-.4.221-.335.18.417-.132,0,0-.89.278-1.775.578-2.66.87a2,2,0,0,0,1.063,3.857Z" fill="#211715"/>
      <path id="parts_24" data-name="parts 24" d="M224.574,216.845a23.06,23.06,0,0,0,.389,3.443,5.715,5.715,0,0,0,1.317,3.073,4.7,4.7,0,0,0,1.563,1.114c.238.109,1.143.524.351.141.168.081.361.154.541.228l.4.16,1.483.594a6.279,6.279,0,0,0,2.117.707,2,2,0,0,0,0-4c.7,0,.354,0,.076-.109l-.4-.16-.841-.339-1.3-.522-.4-.16c-.04-.016-.079-.034-.119-.048l.453.191q-.292-.135-.6-.246c.563.269.066.024-.049-.038-.091-.048-.181-.1-.267-.157-.427-.275.252.25.031.03-.072-.071-.142-.143-.213-.214-.287-.287.252.394.089.113-.053-.091-.1-.181-.156-.273-.15-.273.183.5.078.191-.034-.1-.069-.2-.1-.3a9.135,9.135,0,0,1-.216-1.124q-.045-.3-.1-.6c-.024-.145-.079-.776-.023-.107-.009-.108-.025-.216-.035-.323-.04-.417-.08-.85-.08-1.268a2,2,0,0,0-4,0Z" fill="#211715"/>
      <path id="parts_25" data-name="parts 25" d="M186.343,185.636c-1.54-8.408-.4-18.552,5.355-25.249,6.424-7.482,16.321-10.182,25.894-9.183,4.571.477,9.327,1.967,12.667,5.25,1.837,1.806,4.667-1.021,2.828-2.829-7.012-6.894-18.711-7.76-27.864-5.7a30.676,30.676,0,0,0-14.87,8.042,28.515,28.515,0,0,0-7.412,13.338,40.879,40.879,0,0,0-.455,17.4c.463,2.529,4.319,1.458,3.857-1.063Z" fill="#211715"/>
      <path id="parts_26" data-name="parts 26" d="M245.67,186.164a36.715,36.715,0,0,0-.143-16.9,21.958,21.958,0,0,0-7.423-11.552c-1.962-1.641-4.806,1.174-2.829,2.829a20.641,20.641,0,0,1,3.661,3.675,18.632,18.632,0,0,1,2.734,6.112,32.161,32.161,0,0,1,.143,14.771c-.53,2.512,3.325,3.585,3.857,1.064Z" fill="#211715"/>
      <path id="parts_27" data-name="parts 27" d="M239.469,187.984a3.834,3.834,0,0,1,1.766-.083,5.937,5.937,0,0,1,.615.166c.076.024.446.171.215.07a4.972,4.972,0,0,1,.564.3c-.009,0,.5.335.292.175a4.369,4.369,0,0,1,1.549,3.926c-.157,3.246-3.139,6.168-6.141,7.3a2.055,2.055,0,0,0-1.4,2.46,2.015,2.015,0,0,0,2.46,1.4c4.851-1.83,9.14-6.179,9.087-11.645a8.242,8.242,0,0,0-3.3-6.71,8.037,8.037,0,0,0-6.771-1.211c-2.482.674-1.429,4.533,1.063,3.857Z" fill="#211715"/>
      <path id="parts_28" data-name="parts 28" d="M190.577,184.216a8.028,8.028,0,0,0-6.8,1.046,8.287,8.287,0,0,0-3.458,6.636c-.225,5.474,4.006,9.9,8.779,11.878a2.011,2.011,0,0,0,2.46-1.4,2.051,2.051,0,0,0-1.4-2.461c-2.978-1.231-5.784-4.269-5.847-7.534a4.967,4.967,0,0,1,.408-2.3c-.057.129.177-.322.208-.374-.006.009.332-.5.179-.3a4.593,4.593,0,0,1,.435-.469c.04-.038.47-.39.252-.228a3.964,3.964,0,0,1,1.851-.8,5.383,5.383,0,0,1,.945-.041c.386,0-.1-.06.308.032.207.047.41.1.614.162,2.467.753,3.522-3.107,1.063-3.857Z" fill="#211715"/>
      <path id="parts_29" data-name="parts 29" d="M236.683,201.333c-2.35,6.975-7.688,13.277-14.936,15.32-7.377,2.078-16.311.95-22.208-4.172a25.629,25.629,0,0,1-7.322-10.956c-.839-2.417-4.7-1.378-3.857,1.063,2.931,8.443,9.495,15.866,18.4,18.049,8.781,2.153,18.61.776,25.477-5.371a30.121,30.121,0,0,0,8.3-12.87c.823-2.445-3.039-3.494-3.857-1.063Z" fill="#211715"/>
      <path id="parts_30" data-name="parts 30" d="M228.262,191.384a4.41,4.41,0,0,1-1.571,3.432,3.428,3.428,0,0,1-2.486.646,3.842,3.842,0,0,1-2.91-1.9,4.5,4.5,0,0,1,.762-5.238,3.558,3.558,0,0,1,4.846-.059,3.969,3.969,0,0,1,1.359,3.119Z" fill="#211715"/>
      <path id="parts_31" data-name="parts 31" d="M208.568,191.384a4.412,4.412,0,0,1-1.57,3.432,3.43,3.43,0,0,1-2.487.646,3.842,3.842,0,0,1-2.91-1.9,4.5,4.5,0,0,1,.762-5.238,3.558,3.558,0,0,1,4.846-.059,3.969,3.969,0,0,1,1.359,3.119Z" fill="#211715"/>
      <path id="parts_32" data-name="parts 32" d="M224.6,174.529a13.979,13.979,0,0,1,1.524.775c.267.16.528.331.783.51.123.086.243.175.364.263.279.2-.047-.042.127.1a24.489,24.489,0,0,1,3.134,2.94q.339.387.659.79l.128.162c-.083-.106-.083-.1,0,0,.1.139.2.277.3.417q.6.84,1.127,1.73.554.933,1.032,1.908.228.463.438.934c.07.156.14.313.206.471-.124-.3.1.26.11.283a2.05,2.05,0,0,0,2.461,1.4,2.021,2.021,0,0,0,1.4-2.46,29.172,29.172,0,0,0-4.9-8.308,20.143,20.143,0,0,0-6.876-5.367,2.054,2.054,0,0,0-2.737.718,2.023,2.023,0,0,0,.718,2.736Z" fill="#211715"/>
      <path id="parts_33" data-name="parts 33" d="M192.843,186.111a77.857,77.857,0,0,1,6.1-5.585c1.039-.856,2.1-1.678,3.211-2.446q.854-.6,1.74-1.135.41-.249.83-.481l.269-.145q.654-.3-.274-.022l-.883-.514c-.078-.063.1-.173.049-.037a2.391,2.391,0,0,0,.037.638c.013.388-.006.778.024,1.165a2.93,2.93,0,0,0,1.212,2.445c1.425.877,3.038-.16,4.309-.846a98.416,98.416,0,0,1,10.04-5.26,2.061,2.061,0,0,0,1.4-2.46,2.014,2.014,0,0,0-2.46-1.4,63.352,63.352,0,0,0-7.45,3.678c-1.061.594-2.114,1.2-3.179,1.786-.379.207-.758.414-1.144.608a3.254,3.254,0,0,0-.566.274c.174-.156-.052-.06.185-.042l1.01.273-.124-.068.718.717c.087.114-.018.434.046.16a2.707,2.707,0,0,0-.012-.568c-.011-.476-.027-.943-.085-1.416a3.351,3.351,0,0,0-2.061-2.993c-1.952-.669-4.119,1.126-5.646,2.186a71.031,71.031,0,0,0-10.121,8.657c-1.8,1.84,1.023,4.671,2.829,2.828Z" fill="#211715"/>
      <path id="parts_34" data-name="parts 34" d="M254.155,295.923c7.359-2.757,17.425-5.994,19.017-14.937.687-3.854-.308-8.12-1.4-11.817-1.105-3.748-2.331-7.462-3.55-11.175-1.1-3.351-2.228-6.7-3.291-10.058-1.264-4-2.565-8.219-4.907-11.743a18.423,18.423,0,0,0-7.313-6.115c-3.852-1.987-7.906-3.591-11.931-5.189-1.922-.763-3.84-1.544-5.771-2.284a5,5,0,0,0-2.607-.278c.782-.124-.587.2-.852.352-.386.225-.748.489-1.14.708a34.689,34.689,0,0,1-25.33,2.547,31.843,31.843,0,0,1-5.767-2.061c-.722-.354-1.373-.8-2.07-1.194a4.017,4.017,0,0,0-3.311-.133c-4.073,1.42-8.091,3.169-12.058,4.858-3.378,1.438-6.939,2.9-9.854,5.18-2.685,2.1-4.324,5.13-5.624,8.217-1.54,3.654-2.634,7.473-3.868,11.237-1.263,3.855-2.544,7.7-3.781,11.568a71.73,71.73,0,0,0-2.89,10.66,21.094,21.094,0,0,0-.276,6.448,13.089,13.089,0,0,0,2.8,6.091c2.626,3.317,6.364,5.075,10.164,6.683q3,1.268,6.04,2.415a2.016,2.016,0,0,0,2.46-1.4,2.043,2.043,0,0,0-1.4-2.46c-2.178-.82-4.345-1.676-6.478-2.61a25.388,25.388,0,0,1-5.464-2.955,11,11,0,0,1-3.919-5.3,13.715,13.715,0,0,1-.008-6.221,82.579,82.579,0,0,1,3.261-11.629c1.324-4.1,2.694-8.189,4.022-12.29,1.3-4.027,2.424-8.209,4.573-11.89,1.745-2.99,4.114-4.458,7.2-5.988,4.163-2.066,8.516-3.735,12.836-5.437l2.886-1.143c.235-.094.468-.2.71-.276.118-.037.39-.029.069-.1a6.18,6.18,0,0,1,1.164.707,32.556,32.556,0,0,0,6.218,2.507,38.63,38.63,0,0,0,16.793,1.457,44.079,44.079,0,0,0,8.018-1.92,35.869,35.869,0,0,0,3.7-1.491c.879-.416,1.658-1,2.517-1.432l-1.009.273a2.132,2.132,0,0,1,1.224.157c.734.282,1.461.583,2.193.872,1.6.633,3.212,1.263,4.814,1.9,3.091,1.239,6.179,2.506,9.159,4a16.638,16.638,0,0,1,5.78,4.047,24.779,24.779,0,0,1,3.7,7.3c2.145,5.891,3.952,11.94,5.887,17.9.9,2.783,1.807,5.569,2.615,8.382s1.62,6.116,1.216,9.045c-.493,3.572-3.383,6.318-6.4,7.966a76.252,76.252,0,0,1-9.823,4.191,2.055,2.055,0,0,0-1.4,2.46,2.016,2.016,0,0,0,2.46,1.4Z" fill="#211715"/>
      <path id="parts_35" data-name="parts 35" d="M173.488,252.094c-.513,1.46-.232,3.389-.237,4.924q-.009,2.783-.027,5.565-.04,7.009-.083,14.02-.036,7.221-.036,14.441.006,3.154.031,6.307c.021,2.257-.18,4.564,1.408,6.391,2.2,2.534,6.41,1.8,9.44,1.807h10.725q13.236,0,26.471-.013,11.775-.006,23.549,0c3.1,0,7.319.751,9.6-1.808,1.53-1.72,1.363-3.87,1.342-6.006q-.027-2.764-.059-5.527-.155-13.287-.335-26.572c-.041-3.342-.083-6.685-.108-10.027-.01-1.354.2-2.98-.557-4.166-1.3-2.034-3.673-1.717-5.756-1.727-11.713-.054-23.432-.266-35.145-.214-11.509.052-23.017.164-34.526.216-2.116.01-4.239-.167-5.492,1.916-1.33,2.212,2.127,4.225,3.454,2.019.044-.073-.476-.081-.1.074a1.641,1.641,0,0,0,.378,0h1.055l2.558-.012q3.335-.016,6.67-.036,8.817-.051,17.632-.112c12.284-.084,24.566.051,36.85.12q3.141.018,6.282.033l2.323.011c.128,0,.263.011.39,0h.186q.334.033.041-.051c0-.055-.183-.281-.252-.2a1.714,1.714,0,0,0,0,.351c-.194,2.607.042,5.32.072,7.933q.143,12.5.315,25,.069,5.6.127,11.208c.012,1.239.456,3.343-1.253,3.6a24.236,24.236,0,0,1-3.408-.015q-10.545-.007-21.091,0-22.68.01-45.36.012c-1.039,0-2.743.34-3.265-.821a6.234,6.234,0,0,1-.145-2.3q-.017-1.461-.025-2.921c-.027-4.366-.021-8.733-.006-13.1.028-8.424.106-16.849.134-25.273,0-1.18-.294-2.872.1-3.978C178.2,250.724,174.336,249.677,173.488,252.094Z" fill="#211715"/>
    </g>
    <text id="_2._リクエスト内容をもとに_処理実施" data-name="2. リクエスト内容をもとに
  処理実施" transform="translate(515.217 78)" fill="#211715" font-size="20" font-family="YuGothicUI-Regular, Yu Gothic UI" letter-spacing="0.05em"><tspan x="0" y="0">2. リクエスト内容をもとに</tspan><tspan x="0" y="27">処理実施</tspan></text>
    <text id="_3._処理結果をもとに画面作成" data-name="3. 処理結果をもとに画面作成" transform="translate(515.217 227.166)" fill="#211715" font-size="20" font-family="YuGothicUI-Regular, Yu Gothic UI" letter-spacing="0.05em"><tspan x="0" y="0">3. 処理結果をもとに画面作成</tspan></text>
    <text id="_4._画面表示" data-name="4. 画面表示" transform="translate(152.552 226.694)" fill="#211715" font-size="20" font-family="YuGothicUI-Regular, Yu Gothic UI" letter-spacing="0.05em"><tspan x="0" y="0">4. 画面表示</tspan></text>
    <path id="parts_48" data-name="parts 48" d="M9.788,0,5.353,3.43l-.663.512L0,7.569" transform="translate(311.263 100.029)" fill="#211715" stroke="#211715" stroke-linecap="round" stroke-width="2"/>
    <line id="sign_17" data-name="sign 17" y1="0.305" x2="167.5" transform="translate(152.552 249.194)" fill="#211715" stroke="#211715" stroke-linecap="round" stroke-width="2"/>
    <path id="parts_49" data-name="parts 49" d="M9.79,0,5.354,3.43l-.663.513L0,7.57" transform="translate(152.552 241.929)" fill="#211715" stroke="#211715" stroke-linecap="round" stroke-width="2"/>
    <path id="parts_50" data-name="parts 50" d="M0,0,4.436,3.43l.663.513L9.79,7.57" transform="translate(152.552 249.499)" fill="#211715" stroke="#211715" stroke-linecap="round" stroke-width="2"/>
    <text id="user" transform="translate(34.552 270.529)" fill="#211715" font-size="16" font-family="YuGothicUI-Regular, Yu Gothic UI" letter-spacing="0.05em"><tspan x="0" y="0">ユーザー</tspan></text>
    <text id="flask-2" data-name="flask" transform="translate(407.503 143)" fill="#211715" font-size="16" font-family="YuGothicUI-Regular, Yu Gothic UI" letter-spacing="0.05em"><tspan x="0" y="0">flask</tspan></text>
    <text id="jinja-2" data-name="jinja" transform="translate(409.503 298)" fill="#211715" font-size="16" font-family="YuGothicUI-Regular, Yu Gothic UI" letter-spacing="0.05em"><tspan x="0" y="0">jinja</tspan></text>
  </svg>  