<svg xmlns="http://www.w3.org/2000/svg" width="595.503" height="158.7" viewBox="0 0 595.503 158.7">
  <line id="sign" data-name="sign" y1="0.5" x2="141" transform="translate(210.551 79.35)" fill="#211715" stroke="#211715" stroke-linecap="round" stroke-width="5"/>
  <path id="sign_top" data-name="sign_top" d="M28.1,0,15.367,11.523l-1.9,1.722L0,25.43" transform="translate(323.451 79.35)" fill="#211715" stroke="#211715" stroke-linecap="round" stroke-width="5"/>
  <path id="sign_bottom" data-name="sign_bottom" d="M28.1,25.43,15.367,13.907l-1.9-1.722L0,0" transform="translate(323.451 53.92)" fill="#211715" stroke="#211715" stroke-linecap="round" stroke-width="5"/>
  <g id="user" data-name="user" transform="translate(-155.452 -146.945)">
    <path id="parts_1" data-name="parts 1" d="M196.335,226.183c.967-.319,1.964-.589,2.91-.967a5.122,5.122,0,0,0,3.13-3.064,12.678,12.678,0,0,0,.475-2.387c.183-1.18.329-2.371.434-3.56a2.008,2.008,0,0,0-2-2,2.052,2.052,0,0,0-2,2q-.067.771-.164,1.54c-.027.227-.056.455-.086.682-.051.4.076-.529.01-.071l-.045.307a16.138,16.138,0,0,1-.4,2.186,1.753,1.753,0,0,0-.1.279c-.033-.043.257-.538.062-.172-.04.075-.088.146-.131.219-.158.269.374-.412.035-.06-.065.067-.151.123-.208.194.31-.382.255-.187.073-.072-.13.083-.266.149-.4.221-.335.18.417-.132,0,0-.89.278-1.775.578-2.66.87a2,2,0,0,0,1.063,3.857Z" fill="#211715"/>
    <path id="parts_2" data-name="parts 2" d="M224.574,216.845a23.06,23.06,0,0,0,.389,3.443,5.715,5.715,0,0,0,1.317,3.073,4.7,4.7,0,0,0,1.563,1.114c.238.109,1.143.524.351.141.168.081.361.154.541.228l.4.16,1.483.594a6.279,6.279,0,0,0,2.117.707,2,2,0,0,0,0-4c.7,0,.354,0,.076-.109l-.4-.16-.841-.339-1.3-.522-.4-.16c-.04-.016-.079-.034-.119-.048l.453.191q-.292-.135-.6-.246c.563.269.066.024-.049-.038-.091-.048-.181-.1-.267-.157-.427-.275.252.25.031.03-.072-.071-.142-.143-.213-.214-.287-.287.252.394.089.113-.053-.091-.1-.181-.156-.273-.15-.273.183.5.078.191-.034-.1-.069-.2-.1-.3a9.135,9.135,0,0,1-.216-1.124q-.045-.3-.1-.6c-.024-.145-.079-.776-.023-.107-.009-.108-.025-.216-.035-.323-.04-.417-.08-.85-.08-1.268a2,2,0,0,0-4,0Z" fill="#211715"/>
    <path id="parts_3" data-name="parts 3" d="M186.343,185.636c-1.54-8.408-.4-18.552,5.355-25.249,6.424-7.482,16.321-10.182,25.894-9.183,4.571.477,9.327,1.967,12.667,5.25,1.837,1.806,4.667-1.021,2.828-2.829-7.012-6.894-18.711-7.76-27.864-5.7a30.676,30.676,0,0,0-14.87,8.042,28.515,28.515,0,0,0-7.412,13.338,40.879,40.879,0,0,0-.455,17.4c.463,2.529,4.319,1.458,3.857-1.063Z" fill="#211715"/>
    <path id="parts_4" data-name="parts 4" d="M245.67,186.164a36.715,36.715,0,0,0-.143-16.9,21.958,21.958,0,0,0-7.423-11.552c-1.962-1.641-4.806,1.174-2.829,2.829a20.641,20.641,0,0,1,3.661,3.675,18.632,18.632,0,0,1,2.734,6.112,32.161,32.161,0,0,1,.143,14.771c-.53,2.512,3.325,3.585,3.857,1.064Z" fill="#211715"/>
    <path id="parts_5" data-name="parts 5" d="M239.469,187.984a3.834,3.834,0,0,1,1.766-.083,5.937,5.937,0,0,1,.615.166c.076.024.446.171.215.07a4.972,4.972,0,0,1,.564.3c-.009,0,.5.335.292.175a4.369,4.369,0,0,1,1.549,3.926c-.157,3.246-3.139,6.168-6.141,7.3a2.055,2.055,0,0,0-1.4,2.46,2.015,2.015,0,0,0,2.46,1.4c4.851-1.83,9.14-6.179,9.087-11.645a8.242,8.242,0,0,0-3.3-6.71,8.037,8.037,0,0,0-6.771-1.211c-2.482.674-1.429,4.533,1.063,3.857Z" fill="#211715"/>
    <path id="parts_6" data-name="parts 6" d="M190.577,184.216a8.028,8.028,0,0,0-6.8,1.046,8.287,8.287,0,0,0-3.458,6.636c-.225,5.474,4.006,9.9,8.779,11.878a2.011,2.011,0,0,0,2.46-1.4,2.051,2.051,0,0,0-1.4-2.461c-2.978-1.231-5.784-4.269-5.847-7.534a4.967,4.967,0,0,1,.408-2.3c-.057.129.177-.322.208-.374-.006.009.332-.5.179-.3a4.593,4.593,0,0,1,.435-.469c.04-.038.47-.39.252-.228a3.964,3.964,0,0,1,1.851-.8,5.383,5.383,0,0,1,.945-.041c.386,0-.1-.06.308.032.207.047.41.1.614.162,2.467.753,3.522-3.107,1.063-3.857Z" fill="#211715"/>
    <path id="parts_7" data-name="parts 7" d="M236.683,201.333c-2.35,6.975-7.688,13.277-14.936,15.32-7.377,2.078-16.311.95-22.208-4.172a25.629,25.629,0,0,1-7.322-10.956c-.839-2.417-4.7-1.378-3.857,1.063,2.931,8.443,9.495,15.866,18.4,18.049,8.781,2.153,18.61.776,25.477-5.371a30.121,30.121,0,0,0,8.3-12.87c.823-2.445-3.039-3.494-3.857-1.063Z" fill="#211715"/>
    <path id="parts_8" data-name="parts 8" d="M228.262,191.384a4.41,4.41,0,0,1-1.571,3.432,3.428,3.428,0,0,1-2.486.646,3.842,3.842,0,0,1-2.91-1.9,4.5,4.5,0,0,1,.762-5.238,3.558,3.558,0,0,1,4.846-.059,3.969,3.969,0,0,1,1.359,3.119Z" fill="#211715"/>
    <path id="parts_9" data-name="parts 9" d="M208.568,191.384a4.412,4.412,0,0,1-1.57,3.432,3.43,3.43,0,0,1-2.487.646,3.842,3.842,0,0,1-2.91-1.9,4.5,4.5,0,0,1,.762-5.238,3.558,3.558,0,0,1,4.846-.059,3.969,3.969,0,0,1,1.359,3.119Z" fill="#211715"/>
    <path id="parts_10" data-name="parts 10" d="M224.6,174.529a13.979,13.979,0,0,1,1.524.775c.267.16.528.331.783.51.123.086.243.175.364.263.279.2-.047-.042.127.1a24.489,24.489,0,0,1,3.134,2.94q.339.387.659.79l.128.162c-.083-.106-.083-.1,0,0,.1.139.2.277.3.417q.6.84,1.127,1.73.554.933,1.032,1.908.228.463.438.934c.07.156.14.313.206.471-.124-.3.1.26.11.283a2.05,2.05,0,0,0,2.461,1.4,2.021,2.021,0,0,0,1.4-2.46,29.172,29.172,0,0,0-4.9-8.308,20.143,20.143,0,0,0-6.876-5.367,2.054,2.054,0,0,0-2.737.718,2.023,2.023,0,0,0,.718,2.736Z" fill="#211715"/>
    <path id="parts_11" data-name="parts 11" d="M192.843,186.111a77.857,77.857,0,0,1,6.1-5.585c1.039-.856,2.1-1.678,3.211-2.446q.854-.6,1.74-1.135.41-.249.83-.481l.269-.145q.654-.3-.274-.022l-.883-.514c-.078-.063.1-.173.049-.037a2.391,2.391,0,0,0,.037.638c.013.388-.006.778.024,1.165a2.93,2.93,0,0,0,1.212,2.445c1.425.877,3.038-.16,4.309-.846a98.416,98.416,0,0,1,10.04-5.26,2.061,2.061,0,0,0,1.4-2.46,2.014,2.014,0,0,0-2.46-1.4,63.352,63.352,0,0,0-7.45,3.678c-1.061.594-2.114,1.2-3.179,1.786-.379.207-.758.414-1.144.608a3.254,3.254,0,0,0-.566.274c.174-.156-.052-.06.185-.042l1.01.273-.124-.068.718.717c.087.114-.018.434.046.16a2.707,2.707,0,0,0-.012-.568c-.011-.476-.027-.943-.085-1.416a3.351,3.351,0,0,0-2.061-2.993c-1.952-.669-4.119,1.126-5.646,2.186a71.031,71.031,0,0,0-10.121,8.657c-1.8,1.84,1.023,4.671,2.829,2.828Z" fill="#211715"/>
    <path id="parts_12" data-name="parts 12" d="M254.155,295.923c7.359-2.757,17.425-5.994,19.017-14.937.687-3.854-.308-8.12-1.4-11.817-1.105-3.748-2.331-7.462-3.55-11.175-1.1-3.351-2.228-6.7-3.291-10.058-1.264-4-2.565-8.219-4.907-11.743a18.423,18.423,0,0,0-7.313-6.115c-3.852-1.987-7.906-3.591-11.931-5.189-1.922-.763-3.84-1.544-5.771-2.284a5,5,0,0,0-2.607-.278c.782-.124-.587.2-.852.352-.386.225-.748.489-1.14.708a34.689,34.689,0,0,1-25.33,2.547,31.843,31.843,0,0,1-5.767-2.061c-.722-.354-1.373-.8-2.07-1.194a4.017,4.017,0,0,0-3.311-.133c-4.073,1.42-8.091,3.169-12.058,4.858-3.378,1.438-6.939,2.9-9.854,5.18-2.685,2.1-4.324,5.13-5.624,8.217-1.54,3.654-2.634,7.473-3.868,11.237-1.263,3.855-2.544,7.7-3.781,11.568a71.73,71.73,0,0,0-2.89,10.66,21.094,21.094,0,0,0-.276,6.448,13.089,13.089,0,0,0,2.8,6.091c2.626,3.317,6.364,5.075,10.164,6.683q3,1.268,6.04,2.415a2.016,2.016,0,0,0,2.46-1.4,2.043,2.043,0,0,0-1.4-2.46c-2.178-.82-4.345-1.676-6.478-2.61a25.388,25.388,0,0,1-5.464-2.955,11,11,0,0,1-3.919-5.3,13.715,13.715,0,0,1-.008-6.221,82.579,82.579,0,0,1,3.261-11.629c1.324-4.1,2.694-8.189,4.022-12.29,1.3-4.027,2.424-8.209,4.573-11.89,1.745-2.99,4.114-4.458,7.2-5.988,4.163-2.066,8.516-3.735,12.836-5.437l2.886-1.143c.235-.094.468-.2.71-.276.118-.037.39-.029.069-.1a6.18,6.18,0,0,1,1.164.707,32.556,32.556,0,0,0,6.218,2.507,38.63,38.63,0,0,0,16.793,1.457,44.079,44.079,0,0,0,8.018-1.92,35.869,35.869,0,0,0,3.7-1.491c.879-.416,1.658-1,2.517-1.432l-1.009.273a2.132,2.132,0,0,1,1.224.157c.734.282,1.461.583,2.193.872,1.6.633,3.212,1.263,4.814,1.9,3.091,1.239,6.179,2.506,9.159,4a16.638,16.638,0,0,1,5.78,4.047,24.779,24.779,0,0,1,3.7,7.3c2.145,5.891,3.952,11.94,5.887,17.9.9,2.783,1.807,5.569,2.615,8.382s1.62,6.116,1.216,9.045c-.493,3.572-3.383,6.318-6.4,7.966a76.252,76.252,0,0,1-9.823,4.191,2.055,2.055,0,0,0-1.4,2.46,2.016,2.016,0,0,0,2.46,1.4Z" fill="#211715"/>
    <path id="parts_13" data-name="parts 13" d="M173.488,252.094c-.513,1.46-.232,3.389-.237,4.924q-.009,2.783-.027,5.565-.04,7.009-.083,14.02-.036,7.221-.036,14.441.006,3.154.031,6.307c.021,2.257-.18,4.564,1.408,6.391,2.2,2.534,6.41,1.8,9.44,1.807h10.725q13.236,0,26.471-.013,11.775-.006,23.549,0c3.1,0,7.319.751,9.6-1.808,1.53-1.72,1.363-3.87,1.342-6.006q-.027-2.764-.059-5.527-.155-13.287-.335-26.572c-.041-3.342-.083-6.685-.108-10.027-.01-1.354.2-2.98-.557-4.166-1.3-2.034-3.673-1.717-5.756-1.727-11.713-.054-23.432-.266-35.145-.214-11.509.052-23.017.164-34.526.216-2.116.01-4.239-.167-5.492,1.916-1.33,2.212,2.127,4.225,3.454,2.019.044-.073-.476-.081-.1.074a1.641,1.641,0,0,0,.378,0h1.055l2.558-.012q3.335-.016,6.67-.036,8.817-.051,17.632-.112c12.284-.084,24.566.051,36.85.12q3.141.018,6.282.033l2.323.011c.128,0,.263.011.39,0h.186q.334.033.041-.051c0-.055-.183-.281-.252-.2a1.714,1.714,0,0,0,0,.351c-.194,2.607.042,5.32.072,7.933q.143,12.5.315,25,.069,5.6.127,11.208c.012,1.239.456,3.343-1.253,3.6a24.236,24.236,0,0,1-3.408-.015q-10.545-.007-21.091,0-22.68.01-45.36.012c-1.039,0-2.743.34-3.265-.821a6.234,6.234,0,0,1-.145-2.3q-.017-1.461-.025-2.921c-.027-4.366-.021-8.733-.006-13.1.028-8.424.106-16.849.134-25.273,0-1.18-.294-2.872.1-3.978C178.2,250.724,174.336,249.677,173.488,252.094Z" fill="#211715"/>
  </g>
  <g id="cloud" data-name="cloud" transform="translate(449.6 -187.886)">
    <path id="parts_1" data-name="parts 1" d="M27.543,261.143c-2.85-10.452-.224-21.829,8.253-28.9,8.054-6.715,20.42-7.67,29.6-2.768a25.988,25.988,0,0,1,11.549,12.7,2.424,2.424,0,0,0,3.284.861c10.969-6.374,26.454-2.443,31.655,9.5a21.679,21.679,0,0,1,1.671,9.4,2.407,2.407,0,0,0,2.4,2.4,23.454,23.454,0,0,1,14.171,2.508,21.3,21.3,0,0,1,8.636,9.014,23.52,23.52,0,0,1-2.206,24.24,20.172,20.172,0,0,1-9.534,6.682,30.338,30.338,0,0,1-9.753,1.226H33.537c-5.9,0-12,.418-17.412-2.287C8.489,301.9,4.734,293.919,4.849,285.5c.118-8.679,5.431-16.888,13.686-19.923a23.478,23.478,0,0,1,6.694-1.4c3.069-.187,3.09-4.988,0-4.8A26.466,26.466,0,0,0,1.707,276.452a28.532,28.532,0,0,0,4.682,27.714,24.551,24.551,0,0,0,11.461,7.377,36.636,36.636,0,0,0,10.936,1.271h86.929a50.624,50.624,0,0,0,9.172-.53,25.808,25.808,0,0,0,12.6-6.173c7.34-6.617,9.945-17.608,7.555-27.044a26.183,26.183,0,0,0-20.226-19.182,29.222,29.222,0,0,0-8.863-.341l2.4,2.4a25.777,25.777,0,0,0-7.138-18.849,27.21,27.21,0,0,0-19.152-7.9,27.666,27.666,0,0,0-14.259,3.7l3.284.861c-5.1-11.646-17.08-18.593-29.668-18.1a30.786,30.786,0,0,0-27.5,18.97,34.177,34.177,0,0,0-1,21.8C23.726,265.4,28.358,264.133,27.543,261.143Z" fill="#211715"/>
  </g>
</svg>